{
  "asset": {
    "generator": "Khronos glTF Blender I/O v5.1.18",
    "version": "2.0"
  },
  "scene": 0,
  "scenes": [
    {
      "name": "Scene",
      "nodes": [
        0
      ]
    }
  ],
  "nodes": [
    {
      "mesh": 0,
      "name": "vintage_telephone_wall_clock"
    }
  ],
  "materials": [
    {
      "alphaMode": "BLEND",
      "doubleSided": true,
      "name": "vintage_telephone_wall_clock_glass",
      "normalTexture": {
        "index": 0
      },
      "pbrMetallicRoughness": {
        "baseColorTexture": {
          "index": 1
        },
        "metallicRoughnessTexture": {
          "index": 2
        }
      }
    },
    {
      "doubleSided": true,
      "name": "vintage_telephone_wall_clock",
      "normalTexture": {
        "index": 3
      },
      "pbrMetallicRoughness": {
        "baseColorTexture": {
          "index": 4
        },
        "metallicRoughnessTexture": {
          "index": 5
        }
      }
    }
  ],
  "meshes": [
    {
      "name": "Plane.019",
      "primitives": [
        {
          "attributes": {
            "POSITION": 0,
            "NORMAL": 1,
            "TEXCOORD_0": 2
          },
          "indices": 3,
          "material": 0
        },
        {
          "attributes": {
            "POSITION": 4,
            "NORMAL": 5,
            "TEXCOORD_0": 6
          },
          "indices": 7,
          "material": 1
        }
      ]
    }
  ],
  "textures": [
    {
      "sampler": 0,
      "source": 0
    },
    {
      "sampler": 0,
      "source": 1
    },
    {
      "sampler": 0,
      "source": 2
    },
    {
      "sampler": 0,
      "source": 0
    },
    {
      "sampler": 0,
      "source": 3
    },
    {
      "sampler": 0,
      "source": 2
    }
  ],
  "images": [
    {
      "mimeType": "image/jpeg",
      "name": "vintage_telephone_wall_clock_nor_gl",
      "uri": "textures/vintage_telephone_wall_clock_nor_gl_1k.jpg"
    },
    {
      "mimeType": "image/jpeg",
      "name": "vintage_telephone_wall_clock_diff-vintage_telephone_wall_clock_alpha",
      "uri": "textures/vintage_telephone_wall_clock_diff_1k.jpg"
    },
    {
      "mimeType": "image/jpeg",
      "name": "vintage_telephone_wall_clock_metal-vintage_telephone_wall_clock_rough",
      "uri": "textures/vintage_telephone_wall_clock_arm_1k.jpg"
    },
    {
      "mimeType": "image/jpeg",
      "name": "vintage_telephone_wall_clock_diff",
      "uri": "textures/vintage_telephone_wall_clock_diff_1k.jpg"
    }
  ],
  "accessors": [
    {
      "bufferView": 0,
      "componentType": 5126,
      "count": 388,
      "max": [
        0.06692959368228912,
        0.2722152769565582,
        0.1119602769613266
      ],
      "min": [
        -0.06651589274406433,
        0.13876977562904358,
        0.10997440665960312
      ],
      "type": "VEC3"
    },
    {
      "bufferView": 1,
      "componentType": 5126,
      "count": 388,
      "type": "VEC3"
    },
    {
      "bufferView": 2,
      "componentType": 5126,
      "count": 388,
      "type": "VEC2"
    },
    {
      "bufferView": 3,
      "componentType": 5123,
      "count": 1152,
      "type": "SCALAR"
    },
    {
      "bufferView": 4,
      "componentType": 5126,
      "count": 12393,
      "max": [
        0.16679838299751282,
        0.427651584148407,
        0.19256296753883362
      ],
      "min": [
        -0.17600713670253754,
        -0.0735805481672287,
        -3.725290298461914e-8
      ],
      "type": "VEC3"
    },
    {
      "bufferView": 5,
      "componentType": 5126,
      "count": 12393,
      "type": "VEC3"
    },
    {
      "bufferView": 6,
      "componentType": 5126,
      "count": 12393,
      "type": "VEC2"
    },
    {
      "bufferView": 7,
      "componentType": 5123,
      "count": 46440,
      "type": "SCALAR"
    }
  ],
  "bufferViews": [
    {
      "buffer": 0,
      "byteLength": 4656,
      "byteOffset": 0,
      "target": 34962
    },
    {
      "buffer": 0,
      "byteLength": 4656,
      "byteOffset": 4656,
      "target": 34962
    },
    {
      "buffer": 0,
      "byteLength": 3104,
      "byteOffset": 9312,
      "target": 34962
    },
    {
      "buffer": 0,
      "byteLength": 2304,
      "byteOffset": 12416,
      "target": 34963
    },
    {
      "buffer": 0,
      "byteLength": 148716,
      "byteOffset": 14720,
      "target": 34962
    },
    {
      "buffer": 0,
      "byteLength": 148716,
      "byteOffset": 163436,
      "target": 34962
    },
    {
      "buffer": 0,
      "byteLength": 99144,
      "byteOffset": 312152,
      "target": 34962
    },
    {
      "buffer": 0,
      "byteLength": 92880,
      "byteOffset": 411296,
      "target": 34963
    }
  ],
  "samplers": [
    {
      "magFilter": 9729,
      "minFilter": 9987
    }
  ],
  "buffers": [
    {
      "byteLength": 504176,
      "uri": "vintage_telephone_wall_clock.bin"
    }
  ]
}